# xmcd
#
# Track frame offsets: 
#        182
#        13152
#        31637
#        49665
#        63852
#        75985
#        98612
#        118185
#        132180
#        143830
#        172655
#        184772
#
# Disc length: 2648 seconds
#
# Revision: 2
# Processed by: cddbd v1.5.2PL0 Copyright (c) Steve Scherf et al.
# Submitted via: ExactAudioCopy v0.95b4
#
DISCID=8a0a560c
DTITLE=Various Artist - New Country August 1995
DYEAR=1995
DGENRE=Country
TTITLE0=South of Round Rock, Texas/Dale Watson
TTITLE1=Runaway Train/The Burns Sisters
TTITLE2=Lonesome Question/Jack Ingram
TTITLE3=Bluebonnet Blue/Stephen Bruton
TTITLE4=A Little Bit of You/Lee Roy Parnell
TTITLE5=Certain Slant of Love/Vigilantes of Love
TTITLE6=Mississippi and Me/Kate Campbell
TTITLE7=I've Got Your Number/Shane Sutton
TTITLE8=Battle with the Bottle/Billy Bacon and the Forbidden Pigs
TTITLE9=Camden Town/Clive Gregson
TTITLE10=Whiplash/Tammy Rogers and Don Heffington
TTITLE11=Party All Night/Jeff Foxworthy
EXTD=
EXTT0=
EXTT1=
EXTT2=
EXTT3=
EXTT4=
EXTT5=
EXTT6=
EXTT7=
EXTT8=
EXTT9=
EXTT10=
EXTT11=
PLAYORDER=
